<?xml version="1.0" standalone="no"?>
<!DOCTYPE svg PUBLIC "-//W3C//DTD SVG 20010904//EN"
 "http://www.w3.org/TR/2001/REC-SVG-20010904/DTD/svg10.dtd">
<svg version="1.0" xmlns="http://www.w3.org/2000/svg"
 width="512.000000pt" height="168.000000pt" viewBox="0 0 512.000000 168.000000"
 preserveAspectRatio="xMidYMid meet">

<g transform="translate(0.000000,168.000000) scale(0.100000,-0.100000)"
fill="#000000" stroke="none">
<path d="M4360 840 l0 -840 60 0 c41 0 60 4 61 13 4 40 -4 1653 -8 1660 -2 4
-29 7 -59 7 l-54 0 0 -840z"/>
<path d="M1975 1405 c-347 -64 -680 -209 -832 -361 -52 -51 -63 -68 -63 -95 0
-37 31 -108 59 -133 18 -16 20 -15 47 31 115 198 459 419 819 528 66 19 125
37 130 40 24 9 -96 2 -160 -10z"/>
<path d="M2740 1418 c3 -3 67 -26 143 -52 329 -109 643 -313 772 -501 21 -30
43 -54 49 -52 16 5 56 88 62 129 6 33 2 41 -41 87 -122 131 -425 274 -739 352
-111 27 -258 49 -246 37z"/>
<path d="M2280 1249 c-25 -4 -87 -15 -138 -23 -132 -21 -302 -75 -302 -95 0
-9 14 -68 30 -131 32 -121 94 -263 129 -294 21 -19 22 -18 133 66 147 111 235
160 291 160 71 2 172 -53 371 -201 l70 -52 33 52 c18 29 45 84 60 123 34 90
83 279 75 287 -24 23 -304 93 -432 109 -98 12 -255 11 -320 -1z"/>
<path d="M1578 959 c-67 -52 -278 -268 -278 -285 0 -31 349 -264 394 -264 8 0
20 7 27 16 8 9 60 57 116 106 l103 89 -106 131 c-58 72 -123 158 -145 190 -22
32 -44 58 -48 58 -5 0 -33 -19 -63 -41z"/>
<path d="M3170 927 c-24 -40 -85 -125 -134 -190 l-89 -118 29 -28 c16 -15 69
-65 117 -112 l88 -84 62 34 c68 37 265 167 311 205 l30 25 -140 141 c-115 118
-210 202 -226 200 -2 -1 -23 -33 -48 -73z"/>
<path d="M2309 808 c-152 -94 -239 -153 -239 -163 0 -13 68 -79 138 -133 57
-45 204 -122 231 -122 10 0 58 20 107 43 111 55 261 172 268 211 2 8 -160 109
-267 166 -51 27 -107 50 -123 50 -18 0 -63 -21 -115 -52z"/>
<path d="M1073 678 c-36 -48 -63 -200 -63 -356 0 -71 3 -144 6 -161 l7 -31
477 0 c496 0 810 8 810 20 0 4 -64 20 -141 35 -234 45 -472 122 -660 213 -158
77 -296 167 -363 237 -57 60 -59 61 -73 43z"/>
<path d="M3743 634 c-88 -101 -329 -244 -543 -322 -190 -68 -515 -152 -592
-152 -15 0 -29 -4 -32 -9 -8 -13 206 -18 789 -17 l510 1 -1 175 c-1 133 -5
191 -18 239 -16 60 -51 141 -61 141 -2 0 -25 -25 -52 -56z"/>
<path d="M1848 510 c-58 -49 -108 -96 -111 -105 -5 -11 7 -22 42 -40 122 -61
500 -170 632 -182 51 -4 98 1 217 26 234 49 522 151 522 184 0 8 -26 36 -57
63 -32 26 -82 70 -112 97 l-54 48 -36 -35 c-157 -151 -382 -278 -462 -262 -98
19 -292 132 -404 235 -73 68 -60 70 -177 -29z"/>
</g>
</svg>
